<?xml version="1.0" encoding="UTF-8" standalone="no"?>
<!-- Created with Inkscape (http://www.inkscape.org/) -->

<svg
   xmlns:dc="http://purl.org/dc/elements/1.1/"
   xmlns:cc="http://creativecommons.org/ns#"
   xmlns:rdf="http://www.w3.org/1999/02/22-rdf-syntax-ns#"
   xmlns:svg="http://www.w3.org/2000/svg"
   xmlns="http://www.w3.org/2000/svg"
   xmlns:sodipodi="http://sodipodi.sourceforge.net/DTD/sodipodi-0.dtd"
   xmlns:inkscape="http://www.inkscape.org/namespaces/inkscape"
   width="442.28876"
   height="411.42221"
   viewBox="0 0 442.28876 411.42221"
   id="svg2"
   version="1.1"
   inkscape:version="0.48.0 r9654"
   sodipodi:docname="Documento nuevo 1">
  <defs
     id="defs4" />
  <sodipodi:namedview
     id="base"
     pagecolor="#ffffff"
     bordercolor="#666666"
     borderopacity="1.0"
     inkscape:pageopacity="0.0"
     inkscape:pageshadow="2"
     inkscape:zoom="1"
     inkscape:cx="247.19093"
     inkscape:cy="183.79088"
     inkscape:document-units="px"
     inkscape:current-layer="layer1"
     showgrid="false"
     showguides="true"
     inkscape:guide-bbox="true"
     fit-margin-top="0"
     fit-margin-left="0"
     fit-margin-right="0"
     fit-margin-bottom="0"
     inkscape:window-width="1280"
     inkscape:window-height="738"
     inkscape:window-x="-8"
     inkscape:window-y="-8"
     inkscape:window-maximized="1" />
  <metadata
     id="metadata7">
    <rdf:RDF>
      <cc:Work
         rdf:about="">
        <dc:format>image/svg+xml</dc:format>
        <dc:type
           rdf:resource="http://purl.org/dc/dcmitype/StillImage" />
        <dc:title></dc:title>
      </cc:Work>
    </rdf:RDF>
  </metadata>
  <g
     inkscape:label="Capa 1"
     inkscape:groupmode="layer"
     id="layer1"
     transform="translate(870.97166,-680.64744)">
    <path
       style="fill:#0b3583"
       d="m -671.22783,1090.1006 c -15.20568,-2.1708 -27.07477,-6.3256 -45.92168,-16.0751 -23.49708,-12.155 -47.89567,-17.8859 -84.69199,-19.8932 -37.21285,-2.0299 -44.86294,-4.5787 -59.98278,-19.9847 l -9.14738,-9.3205 19.65313,-1.395 c 46.81178,-3.3228 59.62643,-0.5085 79.15587,17.3838 11.22032,10.2798 33.02164,21.9936 29.76942,15.995 -1.1437,-2.1095 -5.14337,-6.7159 -8.88816,-10.2365 -3.74481,-3.5206 -10.65095,-12.0201 -15.34702,-18.8878 -9.67446,-14.1483 -21.85379,-20.9872 -42.02229,-23.596 -18.89373,-2.444 -27.39638,-8.689 -36.5712,-26.8609 -5.06686,-10.03558 -19.46643,-53.69126 -18.14545,-55.01224 0.41869,-0.41869 4.4549,1.09609 8.96933,3.36621 4.51445,2.27011 12.04872,5.33457 16.74283,6.80991 20.86438,6.55758 23.75526,9.53827 38.424,39.61754 7.51168,15.40318 15.32118,29.35978 17.35445,31.01458 3.32761,2.7082 3.5167,2.5825 1.89318,-1.2586 -9.26164,-21.9125 -12.16166,-58.06359 -6.7356,-83.96423 l 2.83923,-13.55261 -14.52616,-9.31104 c -7.98939,-5.12107 -15.90476,-11.98454 -17.58971,-15.25213 -1.68497,-3.26761 -4.53822,-13.77671 -6.34059,-23.35358 -1.80236,-9.57687 -4.85575,-20.46542 -6.7853,-24.19677 -3.49361,-6.75588 -3.48755,-6.77792 1.447,-5.26591 11.12368,3.4085 32.06057,16.83253 39.1249,25.0856 8.29988,9.69655 13.86553,25.32325 13.78806,38.71288 -0.0275,4.77451 -1.94793,15.81716 -4.26737,24.53923 -19.71155,74.12406 28.77098,151.93836 104.60076,167.88396 29.31893,6.1652 67.00058,-1.1325 92.98257,-18.0076 47.94975,-31.1431 71.45367,-88.1462 59.53881,-144.39706 -3.98162,-18.79744 -4.00272,-30.15768 -0.0768,-41.2851 6.50281,-18.43096 16.20194,-28.25041 39.4262,-39.91528 13.13976,-6.59972 16.16251,-6.70334 12.07462,-0.41383 -1.71616,2.64043 -5.10364,14.33814 -7.5277,25.99493 -2.42408,11.65679 -5.70852,23.17868 -7.2988,25.60421 -1.59026,2.42553 -9.32409,8.17075 -17.18629,12.76714 l -14.29492,8.35708 1.72771,8.71239 c 3.2888,16.58466 1.50126,56.63712 -3.17874,71.22452 -6.75307,21.049 0.1963,12.633 14.61947,-17.70474 6.69499,-14.08232 14.52832,-27.78038 17.40741,-30.44014 5.98383,-5.52802 49.39816,-22.67322 47.98525,-18.95034 -0.51129,1.34719 -3.52115,10.96024 -6.68856,21.36238 -13.3647,43.89084 -26.92087,58.83964 -53.48133,58.97544 -3.52058,0.017 -11.3598,2.3416 -17.42047,5.1635 -8.5973,4.0029 -12.67809,7.7236 -18.56548,16.927 -4.15034,6.4881 -11.06527,15.6918 -15.3665,20.4527 -4.30123,4.761 -7.1967,8.6563 -6.43438,8.6563 4.1367,0 24.85448,-12.3163 32.50393,-19.3229 4.87081,-4.4615 13.03216,-10.3404 18.13631,-13.0642 8.6602,-4.6215 11.39187,-4.9189 40.88319,-4.4516 17.38161,0.2754 33.06156,1.317 34.84436,2.3147 2.59601,1.4528 1.04169,3.7918 -7.80627,11.7469 -14.16184,12.7327 -26.03793,16.3382 -58.64101,17.8031 -33.73272,1.5156 -63.46046,8.7445 -82.18105,19.9838 -16.79348,10.0824 -32.78094,15.7993 -52.92162,18.9242 -16.85438,2.6151 -21.48358,2.614 -39.85944,-0.01 z m -4.26737,-21.3547 c -43.12839,-8.6952 -81.06357,-48.2072 -88.69025,-92.3767 -9.35079,-54.1546 23.97559,-109.11065 76.42417,-126.02547 8.85398,-2.85545 11.49548,-4.77303 12.59177,-9.14101 1.09313,-4.35531 0.16237,-6.5812 -4.38895,-10.49608 -8.09054,-6.9592 -13.81136,-6.24339 -28.50133,3.5662 -15.18767,10.14193 -23.79834,11.04209 -31.54291,3.2975 -8.55881,-8.55878 -7.32404,-20.33209 3.34647,-31.90822 12.08928,-13.11533 26.90727,-19.26557 46.35866,-19.24127 l 15.46922,0.0192 0,-15.55684 0,-15.55682 -26.67106,0 -26.67105,0 0,-18.13632 0,-18.13631 26.67105,0 26.67106,0 0,-19.20316 0,-19.20316 23.47052,0 23.47053,0 0,19.20316 0,19.20316 25.60421,0 25.60421,0 0,18.13631 0,18.13632 -25.60421,0 -25.60421,0 9.4e-4,15.46921 9.4e-4,15.46921 15.46827,0.1564 c 19.58396,0.19801 34.51813,6.39638 46.35773,19.24084 10.67051,11.57614 11.90527,23.34944 3.34647,31.90823 -7.71402,7.7141 -16.13825,6.81902 -31.0354,-3.29744 -6.91237,-4.69411 -14.89156,-8.53474 -17.73149,-8.53474 -7.17994,0 -16.40746,7.78206 -16.40746,13.83728 0,4.21226 2.31885,5.87888 14.83258,10.66066 41.39243,15.81692 68.10881,46.71651 75.98524,87.88285 10.12399,52.91341 -22.49083,108.16761 -74.81519,126.74761 -14.8788,5.2834 -47.30073,7.2484 -64.01053,3.8794 z m 13.35179,-34.243 c 1.87086,-1.8709 3.20772,-1.8578 5.51139,0.054 6.04601,5.0178 42.45929,-1.0048 41.35108,-6.8393 -0.25911,-1.364 1.44922,-2.6181 3.79627,-2.7867 2.34706,-0.1685 5.6596,-0.4087 7.36121,-0.5334 2.40633,-0.1765 2.52486,-0.7958 0.53342,-2.7872 -3.56013,-3.5602 -3.2011,-8.108 0.64011,-8.108 1.76029,0 3.20053,1.6286 3.20053,3.6191 0,2.709 1.92458,1.77 7.65348,-3.734 12.49987,-12.0092 16.63514,-18.7322 13.69851,-22.2706 -3.01976,-3.6386 -1.03723,-7.7444 2.99273,-6.1979 1.85321,0.7111 3.29615,-1.0241 4.06974,-4.894 0.65918,-3.2977 1.84871,-8.63623 2.6434,-11.86343 1.1271,-4.57714 0.68626,-5.86763 -2.00438,-5.86763 -4.34252,0 -4.51885,-3.99087 -0.24875,-5.62945 4.85883,-1.86452 4.05584,-11.61586 -1.06684,-12.95547 -4.98147,-1.30268 -5.04979,-1.55695 -1.81167,-6.74204 3.29778,-5.28059 -3.85804,-21.47841 -9.52429,-21.55905 -2.77507,-0.0395 -3.67944,-1.4116 -3.20053,-4.85584 0.5376,-3.86627 -0.37079,-4.8106 -4.66667,-4.85123 -4.2402,-0.0401 -5.33421,-1.13411 -5.33421,-5.33421 0,-4.15823 -0.96474,-5.15137 -4.52891,-4.66229 -3.07432,0.42187 -4.89472,-0.77736 -5.66788,-3.73395 -0.68912,-2.63525 -2.90328,-4.35546 -5.60608,-4.35546 -2.45692,0 -4.46713,-0.8857 -4.46713,-1.96822 0,-3.00922 -13.3087,-6.74029 -27.93332,-7.83103 -14.90186,-1.11141 -38.19694,3.90371 -40.94544,8.81502 -0.95967,1.71486 -3.72945,3.11791 -6.15506,3.11791 -3.359,0 -4.14434,1.01666 -3.29482,4.26523 1.33938,5.12179 -1.86821,7.65865 -5.68174,4.49371 -4.02042,-3.33665 -17.31692,9.81572 -13.98364,13.83206 3.1502,3.79576 0.41925,8.28006 -3.20884,5.26901 -3.25362,-2.70027 -5.48135,-0.80908 -5.48135,4.65328 0,2.23527 -1.35263,5.41679 -3.00583,7.06999 -4.22182,4.22181 -6.52942,19.58394 -3.49163,23.24425 1.67347,2.01642 1.73616,3.37011 0.19993,4.31949 -2.99896,1.85345 -2.87313,13.93298 0.14509,13.93298 1.44352,0 1.94413,2.29278 1.27025,5.81797 -1.29259,6.7617 5.71338,22.1679 9.71991,21.3742 1.53679,-0.3045 2.43419,1.3874 2.1589,4.0701 -0.25911,2.5252 0.94109,5.7633 2.66711,7.1958 2.19592,1.8224 3.13824,1.8853 3.13824,0.2095 0,-1.3172 1.47658,-2.395 3.28129,-2.395 2.30602,0 3.09873,1.744 2.66711,5.8677 -0.52348,5.0012 0.0947,5.769 4.1866,5.2001 3.71432,-0.5165 4.80079,0.3849 4.80079,3.9828 0,3.6017 0.96343,4.3984 4.27241,3.533 2.6297,-0.6876 5.01687,0.2132 6.2087,2.3428 1.74744,3.1225 12.76385,8.3723 18.43032,8.7829 1.2322,0.089 3.35187,-0.9492 4.71036,-2.3077 z m -10.15126,-7.1316 c 0,-1.7603 1.44024,-3.2006 3.20053,-3.2006 1.76029,0 3.20052,1.4403 3.20052,3.2006 0,1.7603 -1.44023,3.2005 -3.20052,3.2005 -1.76029,0 -3.20053,-1.4402 -3.20053,-3.2005 z m 19.20316,0 c 0,-1.7603 1.44024,-3.2006 3.20053,-3.2006 1.76028,0 3.20052,1.4403 3.20052,3.2006 0,1.7603 -1.44024,3.2005 -3.20052,3.2005 -1.76029,0 -3.20053,-1.4402 -3.20053,-3.2005 z m 19.20316,-0.1778 c 0,-3.7679 4.59331,-3.1117 5.91207,0.8446 0.46453,1.3936 -0.67565,2.5338 -2.53375,2.5338 -1.85807,-10e-5 -3.37832,-1.5204 -3.37832,-3.3784 z m -47.71029,-6.6368 c -2.40292,-2.403 -1.46348,-4.9207 1.83607,-4.9207 1.76029,0 3.20053,0.9035 3.20053,2.0078 0,2.6905 -3.33194,4.6175 -5.0366,2.9128 z m 18.2449,-2.2535 c 0.3955,-2.0537 1.65294,-3.734 2.79433,-3.734 1.1414,0 2.39884,1.6803 2.79434,3.734 0.44978,2.3355 -0.59673,3.7339 -2.79434,3.7339 -2.19761,0 -3.24411,-1.3984 -2.79433,-3.7339 z m 18.79697,-1.7782 c 0,-3.7679 4.59331,-3.1117 5.91207,0.8446 0.46453,1.3936 -0.67565,2.5338 -2.53375,2.5338 -1.85807,0 -3.37832,-1.5203 -3.37832,-3.3784 z m 19.20315,0 c 0,-3.7679 4.59331,-3.1117 5.91208,0.8446 0.46453,1.3936 -0.67565,2.5338 -2.53375,2.5338 -1.85808,0 -3.37833,-1.5203 -3.37833,-3.3784 z m -67.11992,-5.0089 c -1.57797,-2.5532 2.43586,-5.083 5.27788,-3.3265 2.38623,1.4748 0.8197,5.3127 -2.16848,5.3127 -1.03501,0 -2.43424,-0.8938 -3.1094,-1.9862 z m 19.06116,-0.2298 c -2.15069,-3.4799 2.62661,-7.797 5.4755,-4.9481 1.54304,1.5431 1.27452,3.0122 -0.87688,4.7977 -2.29204,1.9023 -3.49169,1.9415 -4.59862,0.1505 z m 18.54281,-2.0513 c 1.07399,-3.222 4.50514,-3.5541 5.51201,-0.5335 0.48897,1.4669 -0.71122,2.6671 -2.66711,2.6671 -1.95588,0 -3.23609,-0.9601 -2.8449,-2.1336 z m 18.84753,-1.0669 c 0,-1.7603 1.44024,-3.2005 3.20053,-3.2005 1.76029,0 3.20053,1.4402 3.20053,3.2005 0,1.7603 -1.44024,3.2005 -3.20053,3.2005 -1.76029,0 -3.20053,-1.4402 -3.20053,-3.2005 z m 19.20316,0 c 0,-1.7603 1.44024,-3.2005 3.20053,-3.2005 1.76029,0 3.20052,1.4402 3.20052,3.2005 0,1.7603 -1.44023,3.2005 -3.20052,3.2005 -1.76029,0 -3.20053,-1.4402 -3.20053,-3.2005 z m 19.20316,0.1777 c 0,-1.858 1.52025,-3.3782 3.37833,-3.3782 3.76793,0 3.11174,4.5933 -0.84458,5.9121 -1.39357,0.4645 -2.53375,-0.6757 -2.53375,-2.5338 z m -104.55053,-8.7124 c 0,-1.7603 1.44024,-3.2006 3.20053,-3.2006 1.76029,0 3.20052,1.4403 3.20052,3.2006 0,1.7603 -1.44023,3.2005 -3.20052,3.2005 -1.76029,0 -3.20053,-1.4402 -3.20053,-3.2005 z m 17.6029,0.5334 c 0.48897,-1.4669 2.16925,-2.6671 3.73394,-2.6671 1.5647,0 3.24497,1.2002 3.73395,2.6671 0.52886,1.5866 -0.98386,2.6671 -3.73395,2.6671 -2.75008,0 -4.2628,-1.0805 -3.73394,-2.6671 z m 20.0922,1.2446 c -2.45511,-2.455 -1.55384,-4.9786 1.77806,-4.9786 1.76029,0 3.20053,1.4403 3.20053,3.2006 0,3.3319 -2.52351,4.2331 -4.97859,1.778 z m 18.96243,-0.5253 c -2.21965,-3.5914 0.92005,-7.4723 3.7532,-4.6392 1.67033,1.6704 1.67033,2.9689 0,4.6392 -1.67036,1.6704 -2.72088,1.6704 -3.7532,0 z m 19.08826,-0.1858 c -1.74004,-2.8155 0.81125,-6.8109 3.34797,-5.2431 2.59159,1.6017 2.57476,7.3768 -0.0215,7.3768 -1.10427,0 -2.60118,-0.9602 -3.32646,-2.1337 z m 18.13632,-3.2005 c 0,-1.7603 1.44024,-3.2006 3.20053,-3.2006 1.76029,0 3.20052,1.4403 3.20052,3.2006 0,1.7602 -1.44023,3.2005 -3.20052,3.2005 -1.76029,0 -3.20053,-1.4403 -3.20053,-3.2005 z m 19.20316,0 c 0,-1.7603 1.44023,-3.2006 3.20052,-3.2006 1.76029,0 3.20053,1.4403 3.20053,3.2006 0,1.7602 -1.44024,3.2005 -3.20053,3.2005 -1.76029,0 -3.20052,-1.4403 -3.20052,-3.2005 z m -123.75369,-6.4011 c 0,-1.7603 1.44024,-3.2005 3.20052,-3.2005 1.76029,0 3.20053,1.4402 3.20053,3.2005 0,1.7603 -1.44024,3.2005 -3.20053,3.2005 -1.76028,0 -3.20052,-1.4402 -3.20052,-3.2005 z m 20.3849,1.2527 c -2.21965,-3.5914 0.92004,-7.4723 3.75319,-4.6391 1.67033,1.6703 1.67033,2.9688 0,4.6391 -1.67035,1.6704 -2.72087,1.6704 -3.75319,0 z m 17.35464,0.5698 c -2.78254,-2.7825 -1.45409,-5.023 2.97826,-5.023 2.48307,0 4.07237,1.1184 3.60059,2.5337 -1.03934,3.1181 -4.60206,4.4661 -6.57885,2.4893 z m 18.65565,-0.9942 c -0.80636,-1.3048 -0.16834,-3.1744 1.41803,-4.1548 3.03965,-1.8786 6.73879,1.791 4.86375,4.8249 -1.50145,2.4294 -4.56836,2.1022 -6.28178,-0.6701 z m 18.74926,-2.2248 c 1.10852,-3.3256 5.68292,-3.8675 6.46897,-0.7664 0.29338,1.1574 -1.25744,2.4493 -3.44626,2.8709 -2.59157,0.4991 -3.64589,-0.235 -3.02271,-2.1045 z m 18.73766,-0.7372 c 0,-1.7603 1.44023,-3.2005 3.20052,-3.2005 1.76029,0 3.20053,1.4402 3.20053,3.2005 0,1.7603 -1.44024,3.2005 -3.20053,3.2005 -1.76029,0 -3.20052,-1.4402 -3.20052,-3.2005 z m 19.20316,0.1778 c 0,-1.8581 1.52025,-3.3783 3.37832,-3.3783 3.76794,0 3.11175,4.5933 -0.84457,5.9121 -1.39358,0.4645 -2.53375,-0.6757 -2.53375,-2.5338 z m -121.62001,-6.4011 c 0,-1.858 1.52025,-3.3783 3.37833,-3.3783 3.76793,0 3.11174,4.5933 -0.84458,5.9121 -1.39357,0.4645 -2.53375,-0.6756 -2.53375,-2.5337 z m 17.06948,-2.3114 c 0,-1.7603 1.44023,-3.2005 3.20052,-3.2005 1.76029,0 3.20053,1.4402 3.20053,3.2005 0,1.7603 -1.44024,3.2005 -3.20053,3.2005 -1.76029,0 -3.20052,-1.4402 -3.20052,-3.2005 z m 19.69213,0.6668 c 1.31877,-3.9564 5.91208,-4.6126 5.91208,-0.8446 0,1.8581 -1.52025,3.3783 -3.37833,3.3783 -1.8581,0 -2.99827,-1.1402 -2.53375,-2.5337 z m 18.71418,-0.8446 c 0,-3.768 4.59331,-3.1118 5.91208,0.8446 0.46452,1.3935 -0.67565,2.5337 -2.53375,2.5337 -1.85808,0 -3.37833,-1.5202 -3.37833,-3.3783 z m 18.22745,1.3921 c -1.57797,-2.5532 2.43586,-5.083 5.27788,-3.3265 2.38623,1.4748 0.8197,5.3127 -2.16848,5.3127 -1.03501,0 -2.43424,-0.8938 -3.1094,-1.9862 z m 19.46765,0.5637 c -2.4551,-2.455 -1.55383,-4.9785 1.77806,-4.9785 1.76029,0 3.20053,1.4402 3.20053,3.2005 0,3.3319 -2.52351,4.2331 -4.97859,1.778 z m 38.0722,-0.6764 c -1.5737,-2.5463 0.42369,-6.43583 3.30495,-6.43583 2.59627,0 2.6131,5.77503 0.0216,7.37673 -1.09244,0.6752 -2.58935,0.2518 -3.32645,-0.9409 z m -19.80253,-2.5685 c 1.31877,-3.95635 5.91208,-4.61254 5.91208,-0.8446 0,1.8581 -1.52025,3.3783 -3.37833,3.3783 -1.8581,0 -2.99827,-1.1402 -2.53375,-2.5337 z m -102.03263,-4.66941 c -1.80768,-4.71077 0.59724,-7.11571 3.85648,-3.85646 1.92437,1.92437 1.93257,3.11714 0.0344,5.01533 -1.89816,1.89814 -2.8235,1.62254 -3.89083,-1.15887 z m 17.17539,-1.47356 c -1.96372,-3.17738 0.31307,-4.90489 4.39831,-3.33723 1.88528,0.72344 2.83018,2.28229 2.0998,3.46412 -1.72952,2.79841 -4.72634,2.73988 -6.49811,-0.12696 z m 18.22405,-0.92489 c 0,-1.76029 1.44024,-3.20053 3.20053,-3.20053 1.76029,0 3.20052,1.44024 3.20052,3.20053 0,1.76029 -1.44023,3.20053 -3.20052,3.20053 -1.76029,0 -3.20053,-1.44024 -3.20053,-3.20053 z m 19.20316,-1.06684 c 0,-2.75009 1.08052,-4.2628 2.66711,-3.73395 1.4669,0.48898 2.6671,2.16925 2.6671,3.73395 0,1.56469 -1.2002,3.24497 -2.6671,3.73395 -1.58659,0.52885 -2.66711,-0.98387 -2.66711,-3.73395 z m 38.40632,2.13368 c -2.52052,-1.55776 -2.6255,-2.49534 -0.51559,-4.60526 2.06055,-2.06054 3.21826,-2.08028 5.20969,-0.0888 3.46159,3.46158 -0.41534,7.33853 -4.6941,4.69411 z m -19.85639,-1.36445 c -2.27197,-2.27196 0.57558,-4.93248 3.90983,-3.65299 1.71597,0.65847 2.58871,2.05678 1.93943,3.10733 -1.38305,2.23785 -3.92039,2.47454 -5.84926,0.54566 z m 37.39137,-1.09889 c 1.10851,-3.32556 5.68292,-3.86751 6.46897,-0.76642 0.29338,1.15746 -1.25745,2.44937 -3.44627,2.8709 -2.59157,0.49909 -3.64589,-0.23494 -3.0227,-2.10448 z m 18.73765,-0.73718 c 0,-1.76029 1.44024,-3.20053 3.20053,-3.20053 1.76029,0 3.20052,1.44024 3.20052,3.20053 0,1.76029 -1.44023,3.20052 -3.20052,3.20052 -1.76029,0 -3.20053,-1.44023 -3.20053,-3.20052 z m -141.53438,-4.62299 c -2.45511,-2.45509 -1.55384,-4.97859 1.77806,-4.97859 1.76029,0 3.20053,1.44023 3.20053,3.20052 0,3.3319 -2.52351,4.23317 -4.97859,1.77807 z m 18.99696,-0.46946 c -0.64312,-1.04055 0.17496,-3.00751 1.81779,-4.37098 3.32584,-2.7602 6.73152,0.4115 4.43384,4.12921 -1.6327,2.64176 -4.69515,2.7602 -6.25163,0.24177 z m 19.04441,-0.25683 c -0.73038,-1.18183 0.21452,-2.74067 2.0998,-3.46412 4.08524,-1.56766 6.36203,0.15981 4.39831,3.33723 -1.77177,2.86678 -4.76859,2.9253 -6.49811,0.12695 z m 19.32738,0.20099 c -2.21965,-3.59146 0.92004,-7.47233 3.75319,-4.63918 1.67034,1.67033 1.67034,2.96885 0,4.63918 -1.67035,1.67036 -2.72087,1.67036 -3.75319,0 z m 18.02142,-3.38645 c 0,-1.76029 1.44023,-3.20053 3.20052,-3.20053 1.76029,0 3.20053,1.44024 3.20053,3.20053 0,1.76029 -1.44024,3.20052 -3.20053,3.20052 -1.76029,0 -3.20052,-1.44023 -3.20052,-3.20052 z m 19.20316,0 c 0,-1.76029 1.44023,-3.20053 3.20052,-3.20053 1.76029,0 3.20053,1.44024 3.20053,3.20053 0,1.76029 -1.44024,3.20052 -3.20053,3.20052 -1.76029,0 -3.20052,-1.44023 -3.20052,-3.20052 z m 18.22744,1.21428 c -1.57796,-2.55317 2.43586,-5.08293 5.27788,-3.32646 2.38623,1.47476 0.8197,5.3127 -2.16848,5.3127 -1.03501,0 -2.43424,-0.89382 -3.1094,-1.98624 z m 18.53417,-2.68119 c 1.31876,-3.95632 5.91207,-4.61251 5.91207,-0.84458 0,1.85808 -1.52025,3.37833 -3.37832,3.37833 -1.8581,0 -2.99828,-1.1402 -2.53375,-2.53375 z m -123.75369,-6.40105 c 1.31876,-3.95632 5.91207,-4.61252 5.91207,-0.84458 0,1.85808 -1.52025,3.37833 -3.37832,3.37833 -1.8581,0 -2.99828,-1.1402 -2.53375,-2.53375 z m 20.84786,-0.66678 c 0,-1.76029 1.44024,-3.20053 3.20053,-3.20053 1.76029,0 3.20053,1.44024 3.20053,3.20053 0,1.76029 -1.44024,3.20053 -3.20053,3.20053 -1.76029,0 -3.20053,-1.44024 -3.20053,-3.20053 z m 18.49932,0.17667 c -1.32128,-3.44319 4.16914,-6.40107 6.09564,-3.28393 1.45184,2.34914 -0.52866,6.30787 -3.15576,6.30787 -0.97872,0 -2.30165,-1.36078 -2.93988,-3.02394 z m 17.77332,-0.17667 c 0,-1.76029 1.44023,-3.20053 3.20052,-3.20053 1.76029,0 3.20053,1.44024 3.20053,3.20053 0,1.76029 -1.44024,3.20053 -3.20053,3.20053 -1.76029,0 -3.20052,-1.44024 -3.20052,-3.20053 z m 19.20315,0 c 0,-1.76029 1.44024,-3.20053 3.20053,-3.20053 1.76029,0 3.20053,1.44024 3.20053,3.20053 0,1.76029 -1.44024,3.20053 -3.20053,3.20053 -1.76029,0 -3.20053,-1.44024 -3.20053,-3.20053 z m 20.07635,0.26477 c -1.80768,-4.71077 0.59724,-7.11571 3.85649,-3.85646 1.92437,1.92437 1.93256,3.11714 0.0344,5.01533 -1.89817,1.89817 -2.8235,1.62256 -3.89084,-1.15887 z m 17.35426,-1.18417 c -1.57797,-2.55317 2.43586,-5.08293 5.27788,-3.32646 2.38623,1.47476 0.8197,5.3127 -2.16848,5.3127 -1.03501,0 -2.43424,-0.89382 -3.1094,-1.98624 z m 19.20316,0 c -0.67518,-1.09245 -0.25176,-2.58936 0.94091,-3.32646 2.54628,-1.5737 6.43585,0.42369 6.43585,3.30495 0,2.59627 -5.77507,2.6131 -7.37676,0.0215 z m -142.95685,-6.40106 c -1.57797,-2.55316 2.43586,-5.08292 5.27788,-3.32645 2.38623,1.47476 0.8197,5.3127 -2.16848,5.3127 -1.03501,0 -2.43424,-0.89382 -3.1094,-1.98625 z m 19.20316,0 c -1.57797,-2.55316 2.43586,-5.08292 5.27788,-3.32645 2.38623,1.47476 0.8197,5.3127 -2.16848,5.3127 -1.03501,0 -2.43424,-0.89382 -3.1094,-1.98625 z m 20.53773,-1.50196 c 0.42153,-2.18882 1.71344,-3.73965 2.8709,-3.44626 3.10109,0.78605 2.55914,5.36045 -0.76642,6.46896 -1.86954,0.62319 -2.60357,-0.43113 -2.10448,-3.0227 z m 17.86859,-0.63172 c -1.57797,-2.55317 2.43585,-5.08293 5.27788,-3.32646 2.38622,1.47476 0.8197,5.31271 -2.16849,5.31271 -1.035,0 -2.43423,-0.89383 -3.10939,-1.98625 z m 18.53416,-0.5475 c 1.31877,-3.95632 5.91208,-4.61252 5.91208,-0.84458 0,1.85808 -1.52025,3.37833 -3.37833,3.37833 -1.8581,0 -2.99827,-1.1402 -2.53375,-2.53375 z m 18.71418,-0.66678 c 0,-1.76029 1.44024,-3.20053 3.20053,-3.20053 1.76029,0 3.20052,1.44024 3.20052,3.20053 0,1.76029 -1.44023,3.20053 -3.20052,3.20053 -1.76029,0 -3.20053,-1.44024 -3.20053,-3.20053 z m 19.20316,0.17774 c 0,-1.85802 1.52025,-3.37827 3.37833,-3.37827 3.76793,0 3.11174,4.59331 -0.84458,5.91208 -1.39357,0.46452 -2.53375,-0.67565 -2.53375,-2.53375 z m 19.20316,-0.17774 c 0,-1.76029 1.44024,-3.20053 3.20053,-3.20053 1.76029,0 3.20052,1.44024 3.20052,3.20053 0,1.76029 -1.44023,3.20053 -3.20052,3.20053 -1.76029,0 -3.20053,-1.44024 -3.20053,-3.20053 z m -123.75369,-7.4679 c 0,-2.75008 1.08052,-4.2628 2.6671,-3.73394 1.46691,0.48897 2.66711,2.16925 2.66711,3.73394 0,1.5647 -1.2002,3.24498 -2.66711,3.73395 -1.58658,0.52886 -2.6671,-0.98386 -2.6671,-3.73395 z m 18.22745,0.14744 c -1.57797,-2.55316 2.43585,-5.08292 5.27788,-3.32645 2.38622,1.47476 0.81969,5.3127 -2.16849,5.3127 -1.035,0 -2.43423,-0.89382 -3.10939,-1.98625 z m 20.17887,-1.03648 c 0,-1.85807 1.52025,-3.37832 3.37832,-3.37832 3.76794,0 3.11175,4.59331 -0.84457,5.91207 -1.39358,0.46453 -2.53375,-0.67565 -2.53375,-2.53375 z m 18.12699,0.87398 c -0.73038,-1.18183 0.21452,-2.74067 2.0998,-3.46412 4.08524,-1.56766 6.36203,0.15981 4.39831,3.33723 -1.77177,2.86678 -4.76859,2.9253 -6.49811,0.12695 z m 38.53054,0.20099 c -2.21965,-3.59146 0.92004,-7.47233 3.75319,-4.63918 1.67034,1.67033 1.67034,2.96885 0,4.63918 -1.67035,1.67036 -2.72087,1.67036 -3.75319,0 z m 19.20316,0 c -2.21965,-3.59146 0.92004,-7.47233 3.75319,-4.63918 1.67034,1.67033 1.67034,2.96885 0,4.63918 -1.67035,1.67036 -2.72087,1.67036 -3.75319,0 z m -39.09908,-2.71968 c 1.31876,-3.95632 5.91207,-4.61251 5.91207,-0.84457 0,1.85807 -1.52025,3.37832 -3.37832,3.37832 -1.8581,0 -2.99828,-1.14019 -2.53375,-2.53375 z m 57.1205,-0.84457 c 0,-3.76794 4.59331,-3.11175 5.91207,0.84457 0.46453,1.39356 -0.67565,2.53375 -2.53375,2.53375 -1.85807,0 -3.37832,-1.52025 -3.37832,-3.37832 z m -123.75369,-6.22325 c 0,-1.76029 1.44023,-3.20053 3.20052,-3.20053 1.76029,0 3.20053,1.44024 3.20053,3.20053 0,1.76028 -1.44024,3.20052 -3.20053,3.20052 -1.76029,0 -3.20052,-1.44024 -3.20052,-3.20052 z m 19.20316,-1.06685 c 0,-2.75008 1.08051,-4.2628 2.6671,-3.73394 1.46691,0.48897 2.66711,2.16925 2.66711,3.73394 0,1.5647 -1.2002,3.24497 -2.66711,3.73395 -1.58659,0.52886 -2.6671,-0.98386 -2.6671,-3.73395 z m 19.20315,-1.06684 c 0,-1.76029 1.44024,-3.20053 3.20053,-3.20053 1.76029,0 3.20053,1.44024 3.20053,3.20053 0,1.76029 -1.44024,3.20053 -3.20053,3.20053 -1.76029,0 -3.20053,-1.44024 -3.20053,-3.20053 z m 18.22745,1.21428 c -1.57797,-2.55317 2.43586,-5.08293 5.27788,-3.32646 2.38623,1.47476 0.8197,5.31271 -2.16848,5.31271 -1.03501,0 -2.43424,-0.89382 -3.1094,-1.98625 z m 19.46765,0.56378 c -2.4551,-2.45508 -1.55383,-4.97859 1.77806,-4.97859 1.76029,0 3.20053,1.44024 3.20053,3.20053 0,3.3319 -2.52351,4.23317 -4.97859,1.77806 z m 17.7807,-1.77806 c 0,-1.76029 1.44023,-3.20053 3.20052,-3.20053 1.76029,0 3.20053,1.44024 3.20053,3.20053 0,1.76029 -1.44024,3.20053 -3.20053,3.20053 -1.76029,0 -3.20052,-1.44024 -3.20052,-3.20053 z m 20.07634,0.26477 c -1.80767,-4.71077 0.59724,-7.11571 3.85649,-3.85646 1.92437,1.92437 1.93256,3.11714 0.0343,5.01533 -1.89817,1.89817 -2.8235,1.62256 -3.89084,-1.15887 z m -105.42372,-8.97731 c 0,-3.76793 4.59331,-3.11174 5.91208,0.84458 0.46452,1.39355 -0.67565,2.53375 -2.53375,2.53375 -1.85808,0 -3.37833,-1.52025 -3.37833,-3.37833 z m 19.20316,0 c 0,-3.76793 4.59331,-3.11174 5.91208,0.84458 0.46452,1.39355 -0.67565,2.53375 -2.53375,2.53375 -1.85808,0 -3.37833,-1.52025 -3.37833,-3.37833 z m 18.127,1.22958 c -0.73039,-1.18182 0.21452,-2.74067 2.0998,-3.46412 4.08523,-1.56766 6.36202,0.15981 4.39831,3.33723 -1.77177,2.86678 -4.76859,2.9253 -6.49811,0.12696 z m 19.09758,-0.17091 c -2.19881,-3.55774 2.7465,-7.63754 5.68994,-4.6941 2.4621,2.46216 0.92115,7.01376 -2.37452,7.01376 -1.035,0 -2.52694,-1.04382 -3.31542,-2.31959 z m 19.20316,0 c -2.19881,-3.55774 2.7465,-7.63754 5.68994,-4.6941 2.4621,2.46216 0.92115,7.01376 -2.37452,7.01376 -1.035,0 -2.52694,-1.04382 -3.31542,-2.31959 z m 19.43295,0.37182 c -2.21965,-3.59146 0.92005,-7.47233 3.7532,-4.63918 1.67033,1.67033 1.67033,2.96885 0,4.63918 -1.67036,1.67035 -2.72088,1.67035 -3.7532,0 z m -105.26676,-9.0503 c 1.10851,-3.32556 5.68292,-3.86752 6.46897,-0.76642 0.29338,1.15746 -1.25745,2.44936 -3.44627,2.87089 -2.59157,0.49909 -3.64589,-0.23494 -3.0227,-2.10447 z m 18.73765,-0.73712 c 0,-1.76029 1.44024,-3.20053 3.20053,-3.20053 1.76029,0 3.20052,1.44024 3.20052,3.20053 0,1.76029 -1.44023,3.20052 -3.20052,3.20052 -1.76029,0 -3.20053,-1.44023 -3.20053,-3.20052 z m 19.20316,0.17773 c 0,-1.85801 1.52025,-3.37826 3.37833,-3.37826 3.76793,0 3.11174,4.59331 -0.84458,5.91208 -1.39357,0.46452 -2.53375,-0.67566 -2.53375,-2.53375 z m 17.53498,-1.57429 c 1.10851,-3.32556 5.68292,-3.86752 6.46897,-0.76642 0.29338,1.15746 -1.25745,2.44936 -3.44626,2.87089 -2.59158,0.49909 -3.64589,-0.23494 -3.02271,-2.10447 z m 20.87134,-0.73713 c 0,-1.76029 1.44023,-3.20052 3.20052,-3.20052 1.76029,0 3.20053,1.44023 3.20053,3.20052 0,1.76029 -1.44024,3.20053 -3.20053,3.20053 -1.76029,0 -3.20052,-1.44024 -3.20052,-3.20053 z m 20.3849,1.25275 c -2.21965,-3.59146 0.92004,-7.47233 3.75319,-4.63918 1.67033,1.67033 1.67033,2.96885 0,4.63918 -1.67035,1.67036 -2.72087,1.67036 -3.75319,0 z m -69.45964,-9.78749 c 0,-1.76028 1.44024,-3.20052 3.20052,-3.20052 1.76029,0 3.20053,1.44024 3.20053,3.20052 0,1.76029 -1.44024,3.20053 -3.20053,3.20053 -1.76028,0 -3.20052,-1.44024 -3.20052,-3.20053 z m 19.20316,0 c 0,-1.76028 1.44023,-3.20052 3.20052,-3.20052 1.76029,0 3.20053,1.44024 3.20053,3.20052 0,1.76029 -1.44024,3.20053 -3.20053,3.20053 -1.76029,0 -3.20052,-1.44024 -3.20052,-3.20053 z m 19.20316,0 c 0,-1.76028 1.44023,-3.20052 3.20052,-3.20052 1.76029,0 3.20053,1.44024 3.20053,3.20052 0,1.76029 -1.44024,3.20053 -3.20053,3.20053 -1.76029,0 -3.20052,-1.44024 -3.20052,-3.20053 z m 19.55878,-1.06684 c 1.07399,-3.22197 4.50514,-3.55401 5.51201,-0.53342 0.48897,1.46691 -0.71122,2.66711 -2.66711,2.66711 -1.95588,0 -3.23609,-0.96016 -2.8449,-2.13369 z m -48.27239,-6.25361 c -1.57797,-2.55317 2.43585,-5.08293 5.27788,-3.32646 2.38623,1.47476 0.8197,5.3127 -2.16849,5.3127 -1.035,0 -2.43423,-0.89382 -3.10939,-1.98624 z m 19.22693,0.0384 c -2.21965,-3.59146 0.92004,-7.47233 3.75319,-4.63918 1.67033,1.67033 1.67033,2.96885 0,4.63918 -1.67036,1.67036 -2.72088,1.67036 -3.75319,0 z m 18.02141,-3.38637 c 0,-1.76029 1.44024,-3.20052 3.20053,-3.20052 1.76029,0 3.20053,1.44023 3.20053,3.20052 0,1.76029 -1.44024,3.20053 -3.20053,3.20053 -1.76029,0 -3.20053,-1.44024 -3.20053,-3.20053 z"
       id="path2996"
       inkscape:connector-curvature="0"
       sodipodi:nodetypes="cssscsssssssssssssscsssssscsssssssssscsssssscssssssssssssccssssssssscccccccccccccccccccccccsssssssssscscccsssssssssssssssssssssssssssssscsssssssssssccccsssssssssscsccccssccssssssssssssssssscsscccsscssssssssssssssssssssssssssssssssscssccsssssssssssssssssssssssccscsssssssssssssssssssssssssssssssssssssssscssccsssssssscscccsssssssssscscccsssssssssssssssssscsscssccssssssssssssssssssssssssssssssssssssssssssssssssssssscssccsssssssssssssssssssssssssssssssssssssssssssssssscssccsssssssssssssssssssssssssssssssssssssssssssssssssssssssscsscccsscccssccsssssssssssssssssssssssssssssssssssssssssssssscsscsssssssssssss" />
  </g>
</svg>
